<svg xmlns="http://www.w3.org/2000/svg" xmlns:svg="http://www.w3.org/2000/svg" version="1.1" viewBox="0 0 875 875" x="0px" y="0px"><g transform="translate(-384.5156,-628.57567)"><path d="m 696.4036,1506.9757 c -0.21492,-0.5867 -5.47397,-18.1067 -11.68677,-38.9333 -6.21279,-20.8267 -19.67376,-65.9467 -29.91325,-100.2667 -28.78249,-96.4711 -38.10831,-129.5726 -37.35294,-132.5822 1.31248,-5.2294 11.56718,-11.929 112.68331,-73.6188 20.24,-12.3482 51.92,-31.5246 70.4,-42.6142 38.53076,-23.1219 35.19595,-22.1619 50.41071,-14.512 13.29294,6.6835 102.08702,60.3813 173.58934,104.9771 29.0256,18.1032 35.0043,22.199 35.9315,24.6152 0.3474,0.9053 -1.4177,8.686 -3.9224,17.2905 -8.6639,29.763 -75.66833,254.3258 -75.9715,254.6157 -0.16737,0.1601 -64.08571,0.697 -142.04076,1.1932 -94.34148,0.6005 -141.86712,0.5455 -142.12724,-0.1645 z m -63.34805,-28.8359 c -6.2769,-4.6768 -28.81024,-18.4039 -63.75121,-38.8363 l -33.36294,-19.5097 -12.10265,-20.409 c -14.58009,-24.5869 -37.19577,-63.8297 -46.49358,-80.6758 -3.72367,-6.7466 -15.74424,-27.6266 -26.71239,-46.4 -10.96816,-18.7733 -30.33149,-52.0236 -43.02965,-73.8896 l -23.08753,-39.7563 0.27584,-57.4526 0.27584,-57.4525 22.93334,24.1822 c 12.61333,13.3003 39.23417,41.4442 59.15743,62.5422 86.1535,91.2333 88.74687,94.1325 94.89782,106.0916 6.4408,12.5226 9.31555,21.136 25.81089,77.335 24.19196,82.421 39.81113,134.7442 44.83037,150.1788 2.63137,8.0916 4.62585,15.1875 4.43217,15.7685 -0.19368,0.5811 -2.02687,-0.1914 -4.07375,-1.7165 z m 409.17065,-8.7641 c 0.8745,-2.7867 14.9638,-49.4667 31.3094,-103.7333 16.3457,-54.2667 31.7401,-104.1867 34.2099,-110.9334 7.5341,-20.5809 11.5336,-27.19 25.984,-42.9386 28.8344,-31.4246 96.1326,-102.6622 140.9378,-149.1877 l 18.1334,-18.8296 0.2761,56.0922 0.2763,56.0923 -8.9689,15.519 c -50.6999,87.7273 -72.1273,124.9124 -95.3018,165.3858 -31.2346,54.5498 -40.4331,69.0564 -50.2886,79.308 -8.397,8.7344 -15.0596,13.3552 -45.7095,31.7017 -25.4567,15.2378 -46.9254,26.5903 -50.2852,26.5903 -2.0925,0 -2.1112,-0.1652 -0.5729,-5.0667 z M 584.89389,1185.6423 c -2.44541,-2.2 -22.76465,-23.6877 -45.15387,-47.7505 -22.38921,-24.0628 -60.58979,-64.8062 -84.8902,-90.5409 -63.77697,-67.54149 -62.8492,-66.5212 -62.8492,-69.11719 0,-2.45193 14.4221,-28.78104 35.23466,-64.32471 37.22176,-63.56726 113.47228,-191.11742 114.93858,-192.26666 2.29902,-1.80192 9.29295,-1.67765 19.20506,0.34128 27.16516,5.53306 222.47077,52.77505 249.02578,60.23622 l 4.00408,1.12502 -0.27074,134.99587 -0.27076,134.99587 -22.4,13.8744 c -128.61131,79.6613 -198.98855,122.4313 -201.45824,122.4313 -0.36791,0 -2.66974,-1.8 -5.11515,-4 z m 495.64011,1.4391 c -1.76,-0.776 -13.04,-7.55 -25.0667,-15.0535 -25.2303,-15.7413 -136.59888,-84.2501 -164.43317,-101.1517 -10.35824,-6.2897 -19.60105,-12.6078 -20.5396,-14.0402 -3.42801,-5.2318 -4.9654,-14.851 -5.96581,-37.327 -0.90868,-20.41512 -1.54634,-237.33333 -0.69767,-237.33333 0.20006,0 36.08006,-8.65948 79.73333,-19.24329 137.82032,-33.41475 176.07372,-42.34429 185.50292,-43.30212 l 5.8667,-0.59593 45.3333,77.15836 c 24.9334,42.4371 59.0843,100.42829 75.8909,128.86929 l 30.5576,51.71094 -11.8183,12.83471 c -112.2161,121.86727 -185.8106,199.03807 -189.7077,198.92627 -0.8007,-0.023 -2.8958,-0.6766 -4.6558,-1.4525 z M 834.13395,736.63909 c -1.17333,-0.269 -7.65333,-1.69457 -14.4,-3.16792 -6.74667,-1.47336 -37.70667,-8.83908 -68.8,-16.36827 -31.09333,-7.52919 -72.85333,-17.56956 -92.8,-22.3119 -19.94667,-4.74236 -40.32695,-9.7288 -45.28954,-11.08098 l -9.02287,-2.45852 4.75621,-3.22693 c 8.00559,-5.43155 23.51451,-13.81139 59.25023,-32.0143 l 34.22735,-17.4346 h 137.09103 137.09101 l 28.68163,15.00585 c 61.3169,32.08014 74.5071,40.46082 63.6805,40.46082 -5.1381,0 -54.7954,11.62723 -157.4438,36.86538 -61.91254,15.22245 -71.07715,17.09428 -77.02175,15.73137 z" fill="#AAAAAA" stroke-width="1.06667"/></g></svg>